# AST/ASF file generated using VICON BodyLanguage
# -----------------------------------------------
:version 1.10
:name VICON
:units
  mass 1.0
  length 0.45
  angle deg
:documentation
   .ast/.asf automatically generated from VICON data using
   VICON BodyBuilder and BodyLanguage model FoxedUp or BRILLIANT.MOD
:root
   order TX TY TZ RX RY RZ
   axis XYZ
   position 0 0 0  
   orientation 0 0 0 
:bonedata
  begin
     id 1 
     name lhipjoint
     direction 0.575328 -0.747301 0.332475 
     length 2.40933 
     axis 0 0 0  XYZ
  end
  begin
     id 2 
     name lfemur
     direction 0.34202 -0.939693 0  
     length 7.31453  
     axis 0 0 20  XYZ
    dof rx ry rz
    limits (-160.0 20.0)
           (-70.0 70.0)
           (-60.0 70.0)
  end
  begin
     id 3 
     name ltibia
     direction 0.34202 -0.939693 0   
     length 7.82185   
     axis 0 0 20   XYZ
    dof rx
    limits (-10.0 170.0)
  end
  begin
     id 4 
     name lfoot
     direction 0.0795993 -0.218697 0.972541   
     length 2.19173   
     axis -90 7.62852e-016 20   XYZ
    dof rx rz
    limits (-45.0 90.0)
           (-70.0 20.0)
  end
  begin
     id 5 
     name ltoes
     direction 1.53537e-011 -4.21894e-011 1   
     length 1.10023   
     axis -90 7.62852e-016 20   XYZ
    dof rx
    limits (-90.0 20.0)
  end
  begin
     id 6 
     name rhipjoint
     direction -0.513884 -0.783789 0.348708   
     length 2.29716  
     axis 0 0 0  XYZ 
  end
  begin
     id 7 
     name rfemur
     direction -0.34202 -0.939693 0   
     length 7.59573   
     axis 0 0 -20   XYZ
    dof rx ry rz
    limits (-160.0 20.0)
           (-70.0 70.0)
           (-70.0 60.0)
  end
  begin
     id 8 
     name rtibia
     direction -0.34202 -0.939693 0   
     length 7.66402   
     axis 0 0 -20   XYZ
    dof rx
    limits (-10.0 170.0)
 end
 begin
     id 9 
     name rfoot
     direction -0.137793 -0.378584 0.915253   
     length 2.27056  
     axis -90 -7.62852e-016 -20   XYZ
    dof rx rz
    limits (-45.0 90.0)
           (-20.0 70.0)
  end
  begin
     id 10 
     name rtoes
     direction -1.53493e-011 -4.22159e-011 1   
     length 1.11766   
     axis -90 -7.62852e-016 -20   XYZ
    dof rx
    limits (-90.0 20.0)
  end
  begin
     id 11 
     name lowerback
     direction -0.00732775 0.998356 -0.05685   
     length 2.16513   
     axis 0 0 0   XYZ
    dof rx ry rz
    limits (-20.0 45.0)
           (-30.0 30.0)
           (-30.0 30.0)
  end
  begin
     id 12 
     name upperback
     direction 0.0218081 0.999627 -0.0164647   
     length 2.16755   
     axis 0 0 0   XYZ
    dof rx ry rz
    limits (-20.0 45.0)
           (-30.0 30.0)
           (-30.0 30.0)
  end
  begin
     id 13 
     name thorax
     direction 0.02365 0.999661 0.0108914   
     length 2.16932   
     axis 0 0 0   XYZ
    dof rx ry rz
    limits (-20.0 45.0)
           (-30.0 30.0)
           (-30.0 30.0)
  end
  begin
     id 14 
     name lowerneck
     direction -0.0523929 0.978385 0.200044   
     length 1.63877   
     axis 0 0 0   XYZ
    dof rx ry rz
    limits (-20.0 45.0)
           (-30.0 30.0)
           (-30.0 30.0)
  end
  begin
     id 15 
     name upperneck
     direction 0.0448674 0.981321 -0.187074   
     length 1.69014   
     axis 0 0 0   XYZ
    dof rx ry rz
    limits (-20.0 45.0)
           (-30.0 30.0)
           (-30.0 30.0)
  end
  begin
     id 16
     name head
     direction 0.0199089 0.996118 -0.0857429  
     length 1.70094  
     axis 0 0 0   XYZ
    dof rx ry rz
    limits (-20.0 45.0)
           (-30.0 30.0)
           (-30.0 30.0)
  end
  begin
     id 17 
     name lclavicle
     direction 0.940366 0.30191 -0.156722  
     length 3.37521  
     axis 0 0 0   XYZ
    dof ry rz
    limits (-20.0 10.0)
           (0.0 20.0)
  end
  begin
     id 18 
     name lhumerus
     direction 1 -4.4897e-011 -1.7911e-027   
     length 5.25287   
     axis 180 -30 -90   XYZ
    dof rx ry rz
    limits (-60.0 90.0)
           (-90.0 90.0)
           (-90.0 90.0)
  end
  begin
     id 19
     name lradius
     direction 1 -4.48951e-011 1.04424e-027   
     length 3.51014   
     axis 180 -30 -90   XYZ
    dof rx
    limits (-10.0 170.0)
  end
  begin
     id 20
     name lwrist
     direction 1 -4.48997e-011 -9.5942e-028   
     length 1.75507   
     axis 8.48502e-016 90 90   XYZ
    dof ry
    limits (-180.0 0.0)
 end
  begin
     id 21 
     name lhand
     direction 1 -4.48831e-011 -1.90777e-027   
     length 0.706179   
     axis 1.22306e-015 90 90   XYZ
    dof rx rz
    limits (-90.0 90.0)
           (-45.0 45.0)
  end
  begin
     id 22 
     name lfingers
     direction 1 -4.49108e-011 -3.85244e-027   
     length 0.569339   
     axis 2.44611e-015 90 90   XYZ
    dof rx
    limits (0.0 90.0)
  end
  begin
     id 23
     name lthumb
     direction 0.707107 -6.34953e-011 0.707107   
     length 0.817461   
     axis -90 45 -1.62303e-014   XYZ
    dof rx rz
    limits (-45.0 45.0)
           (-45.0 45.0)
  end
  begin
     id 24 
     name rclavicle
     direction -0.905329 0.382405 -0.184787   
     length 3.30787  
     axis 0 0 0   XYZ 
    dof ry rz
    limits (-10.0 20.0)
           (-20.0 0.0)
  end
  begin
     id 25 
     name rhumerus
     direction -1 -4.48953e-011 -9.15316e-029  
     length 5.28721   
     axis 180 30 90   XYZ
    dof rx ry rz
    limits (-90.0 60.0)
           (-90.0 90.0)
           (-90.0 90.0)
  end
  begin
     id 26 
     name rradius
     direction -1 -4.48987e-011 9.37824e-028   
     length 3.50544   
     axis 180 30 90   XYZ
    dof rx
    limits (-10.0 170.0)
  end
  begin
     id 27 
     name rwrist
     direction -1 -4.48967e-011 -9.58414e-028   
     length 1.75272   
     axis 8.48502e-016 -90 -90   XYZ
    dof ry
    limits (-180.0 0.0)
  end
  begin
     id 28
     name rhand
     direction -1 -4.48904e-011 -1.91266e-027   
     length 0.884996   
     axis 1.22306e-015 -90 -90   XYZ
    dof rx rz
    limits (-90.0 90.0)
           (-45.0 45.0)
  end
  begin
     id 29
     name rfingers
     direction -1 -4.4909e-011 -3.85015e-027   
     length 0.713507   
     axis 2.44611e-015 -90 -90   XYZ
    dof rx
    limits (0.0 90.0)
  end
  begin
     id 30
     name rthumb
     direction -0.707107 -6.34853e-011 0.707107   
     length 1.02446   
     axis -90 -45 1.62303e-014   XYZ
    dof rx rz
    limits (-45.0 45.0)
           (-45.0 45.0)
  end
:hierarchy
  begin
    root lhipjoint rhipjoint lowerback
    lhipjoint lfemur
    lfemur ltibia
    ltibia lfoot
    lfoot ltoes
    rhipjoint rfemur
    rfemur rtibia
    rtibia rfoot
    rfoot rtoes
    lowerback upperback
    upperback thorax
    thorax lowerneck lclavicle rclavicle
    lowerneck upperneck
    upperneck head
    lclavicle lhumerus
    lhumerus lradius
    lradius lwrist
    lwrist lhand lthumb
    lhand lfingers
    rclavicle rhumerus
    rhumerus rradius
    rradius rwrist
    rwrist rhand rthumb
    rhand rfingers
  end

#!OML:ASF F:\twosubjects\two\Thursday\Session 1\justin.ASF
:FULLY-SPECIFIED
:DEGREES
49
root 7.54975 18.4249 8.73208 -169.835 -6.92325 -177.714
lowerback 0.517788 0.0461931 -6.03141
upperback 1.48194 0.0422657 0.387855
thorax 1.23252 -0.0641575 3.78325
lowerneck -19.6158 -6.28298 -13.8688
upperneck 20.2972 -7.05609 9.23448
head 10.5982 -3.35471 4.52579
rclavicle 2.5842e-015 1.35174e-014
rhumerus -25.9042 -2.8671 -88.5877
rradius 37.0343
rwrist -7.78982
rhand -16.9266 9.09724
rfingers 7.12502
rthumb 9.3062 -20.6774
lclavicle 2.5842e-015 1.35174e-014
lhumerus -19.1937 1.73498 76.511
lradius 38.8512
lwrist -1.48897
lhand -1.84168 36.9446
lfingers 7.12502
lthumb 23.8252 65.4871
rfemur -32.151 -6.95393 22.2806
rtibia 20.9269
rfoot -8.39053 -12.9406
rtoes -8.49178
lfemur -9.54321 11.025 -22.1377
ltibia 13.4461
lfoot -10.794 -0.430505
ltoes -20.003
50
root 7.52925 18.4213 8.7162 -168.935 -5.99531 -177.518
lowerback -0.253764 0.199781 -5.74726
upperback 1.21491 0.300015 0.364127
thorax 1.36304 0.075107 3.60298
lowerneck -19.6499 -6.23289 -13.8381
upperneck 20.2917 -6.94589 9.07573
head 10.5806 -3.31777 4.47941
rclavicle -5.56597e-015 2.38542e-014
rhumerus -25.938 -2.30704 -88.6985
rradius 36.9969
rwrist -8.09997
rhand -16.4859 7.70761
rfingers 7.12502
rthumb 9.7314 -22.0476
lclavicle -5.56597e-015 2.38542e-014
lhumerus -19.2234 2.22442 76.408
lradius 38.9862
lwrist -1.57583
lhand -2.29579 36.8654
lfingers 7.12502
lthumb 23.3897 65.4641
rfemur -33.8222 -7.049 23.12
rtibia 21.3623
rfoot -8.26052 -12.9362
rtoes -8.41502
lfemur -10.4295 10.8673 -22.3145
ltibia 13.2877
lfoot -10.3913 0.574243
ltoes -19.2728
51
root 7.51745 18.4147 8.67594 -169.091 -5.78497 -177.869
lowerback -0.0465315 0.165619 -6.02713
upperback 1.28262 0.241081 0.272379
thorax 1.32248 0.0405141 3.66397
lowerneck -19.6634 -6.12383 -13.5147
upperneck 20.3741 -6.73214 8.42716
head 10.5478 -3.26895 4.22179
rclavicle 1.37161e-014 1.90833e-014
rhumerus -25.9592 -1.97534 -88.7264
rradius 36.8568
rwrist -8.19779
rhand -13.2212 11.649
rfingers 7.12502
rthumb 12.88 -17.9336
lclavicle 1.37161e-014 1.90833e-014
lhumerus -19.2484 2.62735 76.3137
lradius 38.9933
lwrist -1.7187
lhand -2.12616 37.2578
lfingers 7.12502
lthumb 23.5524 65.8357
rfemur -34.1368 -7.9181 23.3684
rtibia 22.0049
rfoot -8.03869 -13.0563
rtoes -6.63612
lfemur -9.90747 10.896 -22.7139
ltibia 12.9984
lfoot -10.3501 0.841729
ltoes -19.8033
52
root 7.50802 18.4129 8.63298 -169.15 -5.47317 -178.378
lowerback 0.119677 0.317481 -6.20053
upperback 1.39762 0.427689 -0.144113
thorax 1.32911 0.125557 3.33164
lowerneck -20.1387 -6.20241 -13.0991
upperneck 20.6058 -6.86295 8.22381
head 10.7124 -3.30927 4.05468
rclavicle 6.95746e-015 4.05521e-014
rhumerus -25.7102 -2.52178 -88.9484
rradius 36.4418
rwrist -7.55273
rhand -11.1854 10.343
rfingers 7.12502
rthumb 14.8418 -19.1054
lclavicle 6.95746e-015 4.05521e-014
lhumerus -18.9696 2.01906 76.0586
lradius 39.0209
lwrist -1.27764
lhand -2.46708 37.6077
lfingers 7.12502
lthumb 23.2253 66.2272
rfemur -34.4814 -8.83128 23.5006
rtibia 22.661
rfoot -7.66068 -12.9676
rtoes -4.30562
lfemur -9.48322 11.3173 -23.39
ltibia 12.794
lfoot -10.4725 1.04115
ltoes -22.3265
53
root 7.50615 18.4004 8.58982 -169.092 -5.21811 -178.625
lowerback 0.217398 0.486555 -6.24659
upperback 1.40339 0.640081 -0.432292
thorax 1.2604 0.230829 3.06051
lowerneck -20.3307 -6.33943 -13.0076
upperneck 20.7191 -7.14755 8.52704
head 10.8329 -3.39432 4.104
rclavicle 7.95139e-016 2.8625e-014
rhumerus -25.6154 -2.91433 -89.108
rradius 36.1321
rwrist -7.30094
rhand -10.6538 10.7238
rfingers 7.12502
rthumb 15.354 -18.6861
lclavicle 7.95139e-016 2.8625e-014
lhumerus -18.8454 1.39299 75.9181
lradius 39.0925
lwrist -0.629936
lhand -1.35413 38.7945
lfingers 7.12502
lthumb 24.2927 67.2753
rfemur -34.9625 -9.18433 23.716
rtibia 23.3252
rfoot -7.47408 -13.2034
rtoes -2.30936
lfemur -9.12654 11.0981 -23.6136
ltibia 12.5199
lfoot -10.3255 1.48908
ltoes -21.799
54
root 7.50649 18.4051 8.54612 -169.229 -5.45653 -178.515
lowerback 0.310575 0.474152 -6.29016
upperback 1.51103 0.620719 -0.254969
thorax 1.31914 0.216037 3.26764
lowerneck -19.9506 -6.38758 -13.1142
upperneck 20.3817 -7.22658 8.60734
head 10.6561 -3.43263 4.13781
rclavicle 1.0138e-014 -4.77083e-015
rhumerus -25.5757 -3.02511 -88.7862
rradius 35.9725
rwrist -6.76005
rhand -9.86471 10.9902
rfingers 7.12502
rthumb 16.1139 -18.3599
lclavicle 1.0138e-014 -4.77083e-015
lhumerus -18.7886 1.39774 76.1914
lradius 39.0383
lwrist -0.462806
lhand -1.60649 38.3429
lfingers 7.12502
lthumb 24.0508 66.8558
rfemur -35.1191 -9.6111 24.2605
rtibia 23.9851
rfoot -7.44112 -13.7965
rtoes -0.975382
lfemur -8.70868 11.2243 -23.3853
ltibia 12.2923
lfoot -10.3055 1.23817
ltoes -21.0433
55
root 7.50608 18.4062 8.49799 -169.59 -5.97938 -178.369
lowerback 0.605182 0.310426 -6.1853
upperback 1.67691 0.383057 -0.0717875
thorax 1.34867 0.0920786 3.39547
lowerneck -19.7041 -6.30043 -12.9692
upperneck 20.1182 -7.09816 8.37365
head 10.4832 -3.38951 4.04854
rclavicle 9.74045e-015 -1.98785e-014
rhumerus -25.6079 -2.91558 -88.6471
rradius 35.865
rwrist -5.79535
rhand -10.0267 10.9583
rfingers 7.12502
rthumb 15.9579 -18.4043
lclavicle 9.74045e-015 -1.98785e-014
lhumerus -18.7707 1.46317 76.3157
lradius 38.8313
lwrist -0.567014
lhand -2.26203 37.381
lfingers 7.12502
lthumb 23.4221 65.9756
rfemur -35.0143 -10.393 24.9095
rtibia 24.7756
rfoot -7.64033 -14.3243
rtoes -1.543
lfemur -7.86139 11.1112 -23.0088
ltibia 11.7448
lfoot -10.285 0.85779
ltoes -20.2297
